<svg width="77" height="59" viewBox="0 0 77 59" fill="none" xmlns="http://www.w3.org/2000/svg">
<path d="M23.8092 12.7788C26.3098 8.43902 32.5725 8.43903 35.0731 12.7788L46.7274 33.0049C49.2242 37.3382 46.0966 42.75 41.0954 42.75H17.787C12.7858 42.75 9.65813 37.3382 12.155 33.0049L23.8092 12.7788Z" fill="#6E32E0" stroke="#E5E5E5" stroke-width="3"/>
<path d="M41.9269 12.7788C44.4275 8.43902 50.6902 8.43903 53.1908 12.7788L64.845 33.0049C67.3419 37.3382 64.2142 42.75 59.213 42.75H35.9046C30.9034 42.75 27.7758 37.3382 30.2726 33.0049L41.9269 12.7788Z" fill="#B12AB1" stroke="#E5E5E5" stroke-width="3"/>
<path d="M33.2027 28.6907C34.5492 26.3539 37.9214 26.3539 39.2679 28.6907L44.3453 37.5026C45.6898 39.836 44.0057 42.75 41.3127 42.75H31.1579C28.4649 42.75 26.7808 39.836 28.1253 37.5026L33.2027 28.6907Z" fill="#7878FA" stroke="#E5E5E5" stroke-width="3"/>
</svg>
